<?xml version="1.0" encoding="utf-8"?>
<!-- Generator: Adobe Illustrator 16.0.0, SVG Export Plug-In . SVG Version: 6.00 Build 0)  -->
<!DOCTYPE svg PUBLIC "-//W3C//DTD SVG 1.1//EN" "http://www.w3.org/Graphics/SVG/1.1/DTD/svg11.dtd">
<svg version="1.1" id="Layer_1" xmlns="http://www.w3.org/2000/svg" xmlns:xlink="http://www.w3.org/1999/xlink" x="0px" y="0px"
	 width="60px" height="60px" viewBox="0 0 60 60" enable-background="new 0 0 60 60" xml:space="preserve">
<path fill="#FFFFFF" d="M47.319,36.516c-0.735-5.443-3.736-9.41-7.433-9.41H22.614c-3.699,0-6.698,3.965-7.435,9.408
	c-2.668,1.35-4.051,4.147-4.051,7.39c0,2.496,0.818,4.727,2.406,6.239v5.144h6.402v-3.127h22.626v3.127h6.402v-5.144
	c1.588-1.513,2.406-3.743,2.406-6.239C51.37,40.663,49.987,37.863,47.319,36.516 M22.613,29.026h17.271
	c2.433,0,4.563,2.886,5.355,6.788c-0.396-0.072-0.818-0.115-1.25-0.137c0-0.01,0.003-0.016,0.003-0.023
	c0-2.266-1.842-4.109-4.108-4.109c-2.268,0-4.109,1.844-4.109,4.109H19.036c-0.632,0-1.225,0.055-1.784,0.159
	C18.047,31.91,20.178,29.026,22.613,29.026 M42.713,35.655h-5.652c0-1.561,1.269-2.827,2.828-2.827
	C41.444,32.828,42.713,34.095,42.713,35.655 M18.079,46.588c-1.479,0-3.681-2.199-3.681-3.683c0-1.479,2.202-1.683,3.681-1.683
	c1.481,0,2.683,1.201,2.683,2.683C20.762,45.392,19.561,46.588,18.079,46.588 M39.036,46.111l-7.765,1l-7.813-1
	c-0.355,0-0.641-0.288-0.641-0.641c0-0.352,0.286-0.639,0.641-0.639l7.813,1l7.765-1c0.354,0,0.642,0.287,0.642,0.639
	C39.678,45.823,39.391,46.111,39.036,46.111 M39.036,43.764l-7.765,1l-7.813-1c-0.355,0-0.641-0.288-0.641-0.642
	c0-0.353,0.286-0.638,0.641-0.638l7.813,1l7.765-1c0.354,0,0.642,0.287,0.642,0.638C39.678,43.476,39.391,43.764,39.036,43.764
	 M44.418,46.588c-1.48,0-2.682-1.199-2.682-2.683c0-1.479,1.201-2.683,2.682-2.683c1.479,0,3.682,0.201,3.682,1.683
	C48.1,44.392,45.896,46.588,44.418,46.588"/>
<text transform="matrix(0.96 -0.2801 0.2801 0.96 29.1006 32.7803)" fill="#FFFFFF" font-family="'MinionPro-Regular'" font-size="34.4642">*</text>
</svg>
