<?xml version="1.0" encoding="utf-8"?>
<!-- Generator: Adobe Illustrator 16.0.0, SVG Export Plug-In . SVG Version: 6.00 Build 0)  -->
<!DOCTYPE svg PUBLIC "-//W3C//DTD SVG 1.1//EN" "http://www.w3.org/Graphics/SVG/1.1/DTD/svg11.dtd">
<svg version="1.1" id="Layer_1" xmlns="http://www.w3.org/2000/svg" xmlns:xlink="http://www.w3.org/1999/xlink" x="0px" y="0px"
	 width="60px" height="50px" viewBox="0 0 60 50" enable-background="new 0 0 60 50" xml:space="preserve">
<path fill="#FFFFFF" d="M45.863,30.199c-0.676-5.522-3.724-9.574-7.491-9.574H21.635c-3.769,0-6.815,4.051-7.497,9.57
	c-2.379,1.366-3.636,3.957-3.636,6.972c0,1.89,0.512,3.605,1.459,4.978v6.052h7.95v-3.032h20.182v3.032h7.95v-6.052
	c0.947-1.372,1.46-3.088,1.46-4.978C49.499,34.156,48.243,31.561,45.863,30.199 M17.239,39.766c-1.436,0-2.599-1.161-2.599-2.599
	c0-1.437,1.163-2.6,2.599-2.6c1.434,0,2.599,1.163,2.599,2.6C19.838,38.604,18.673,39.766,17.239,39.766 M18.166,29.173
	c-0.516,0-0.992,0.058-1.459,0.133c0.749-3.626,2.697-6.296,4.923-6.296h16.739c2.226,0,4.175,2.669,4.922,6.296
	c-0.249-0.039-0.511-0.052-0.773-0.071c0-0.022,0.006-0.039,0.006-0.062c0-2.293-1.861-4.157-4.154-4.157
	c-2.291,0-4.153,1.864-4.153,4.157H18.166z M37.549,39.479H22.453c-0.439,0-0.795-0.354-0.795-0.794
	c0-0.437,0.354-0.793,0.795-0.793h15.096c0.439,0,0.795,0.356,0.795,0.793C38.345,39.125,37.988,39.479,37.549,39.479
	 M37.549,37.206H22.453c-0.439,0-0.795-0.356-0.795-0.793c0-0.44,0.354-0.794,0.795-0.794h15.096c0.439,0,0.795,0.354,0.795,0.794
	C38.345,36.85,37.988,37.206,37.549,37.206 M35.807,29.173c0-1.418,1.148-2.565,2.565-2.565c1.411,0,2.562,1.147,2.562,2.565H35.807
	z M42.762,39.766c-1.435,0-2.6-1.161-2.6-2.599c0-1.437,1.164-2.6,2.6-2.6c1.437,0,2.598,1.163,2.598,2.6
	C45.359,38.604,44.198,39.766,42.762,39.766 M58.352,1.627v46.569h-1.591V3.214H3.24v44.982H1.649V1.627H58.352z M4.297,4.315
	h51.408v3.181H4.299L4.297,4.315z M4.297,8.751h51.408v3.178H4.299L4.297,8.751z M4.297,13.184h51.408v3.179H4.299L4.297,13.184z"/>
</svg>
