<?xml version="1.0" encoding="utf-8"?>
<!-- Generator: Adobe Illustrator 16.0.0, SVG Export Plug-In . SVG Version: 6.00 Build 0)  -->
<!DOCTYPE svg PUBLIC "-//W3C//DTD SVG 1.1//EN" "http://www.w3.org/Graphics/SVG/1.1/DTD/svg11.dtd">
<svg version="1.1" id="Layer_1" xmlns="http://www.w3.org/2000/svg" xmlns:xlink="http://www.w3.org/1999/xlink" x="0px" y="0px"
	 width="100px" height="100px" viewBox="0 0 100 100" enable-background="new 0 0 100 100" xml:space="preserve">
<path fill="#C0392B" d="M51.191,97.508c-19.758,0-35.833-16.073-35.833-35.833c0-19.403,33.85-57.075,35.291-58.669l0.542-0.598
	l0.544,0.599C53.173,4.6,87.023,42.29,87.023,61.675C87.023,81.435,70.948,97.508,51.191,97.508"/>
<g opacity="0.1">
	<g>
		<defs>
			<rect id="SVGID_1_" x="24.095" width="64.548" height="75.71"/>
		</defs>
		<clipPath id="SVGID_2_">
			<use xlink:href="#SVGID_1_"  overflow="visible"/>
		</clipPath>
		<path clip-path="url(#SVGID_2_)" fill="#FFFFFF" d="M51.191,0l-1.742,1.921c-0.929,1.026-15.143,16.845-25.354,33.376
			c17.131,17.767,38.201,31.708,61.81,40.413c1.759-4.339,2.736-9.072,2.736-14.035c0-20.041-34.251-58.142-35.708-59.755L51.191,0z
			"/>
	</g>
</g>
</svg>
