<svg xmlns="http://www.w3.org/2000/svg" xmlns:xlink="http://www.w3.org/1999/xlink" width="100" height="100" viewBox="0 0 100 100"><path fill="#C0392B" d="M51.19 97.508c-19.757 0-35.832-16.073-35.832-35.833 0-19.403 33.85-57.075 35.29-58.67l.543-.597.545.6C53.173 4.6 87.023 42.29 87.023 61.674c0 19.76-16.075 35.833-35.832 35.833"/><g opacity=".1"><defs><path id="a" d="M24.095 0h64.548v75.71H24.095z"/></defs><clipPath id="b"><use xlink:href="#a" overflow="visible"/></clipPath><path clip-path="url(#b)" fill="#FFF" d="M51.19 0l-1.74 1.92c-.93 1.027-15.144 16.846-25.355 33.377 17.13 17.767 38.2 31.708 61.81 40.413 1.76-4.34 2.736-9.072 2.736-14.035 0-20.04-34.25-58.142-35.707-59.755L51.19 0z"/></g></svg>