<?xml version="1.0" encoding="utf-8"?>
<!-- Generator: Adobe Illustrator 16.0.0, SVG Export Plug-In . SVG Version: 6.00 Build 0)  -->
<!DOCTYPE svg PUBLIC "-//W3C//DTD SVG 1.1//EN" "http://www.w3.org/Graphics/SVG/1.1/DTD/svg11.dtd">
<svg version="1.1" xmlns="http://www.w3.org/2000/svg" xmlns:xlink="http://www.w3.org/1999/xlink" x="0px" y="0px" width="500px"
	 height="500px" viewBox="0 0 500 500" enable-background="new 0 0 500 500" xml:space="preserve">
<g id="Layer_2_xA0_Image_1_">
</g>
<g id="V2_2_" enable-background="new    ">
	<defs>
		<path id="SVGID_1_" enable-background="new    " d="M285.507,270.165c-4.324-1.664-10.268-2.594-17.829-2.788
			c-7.567-0.192-17.706-0.287-30.418-0.287h-13.158v71.681h3.813c18.56,0,31.401-0.126,38.521-0.384
			c7.119-0.256,14.365-1.985,21.74-5.189c6.484-2.816,11.217-6.948,14.208-12.396c2.985-5.442,4.48-11.626,4.48-18.544
			c0-8.84-1.782-15.758-5.34-20.756C297.965,276.506,292.625,272.729,285.507,270.165z M258.713,217.7
			c4.894-0.256,9.946-1.601,15.162-4.036c5.72-2.69,9.659-6.405,11.822-11.146c2.161-4.739,3.241-10.248,3.241-16.527
			c0-4.612-1.177-9.351-3.526-14.221c-2.354-4.867-6.008-8.39-10.966-10.57c-4.705-2.048-10.267-3.171-16.687-3.363
			c-6.421-0.192-15.988-0.289-28.699-0.289h-4.958v60.535h8.962C245.27,218.084,253.818,217.958,258.713,217.7z M397.795,1.924
			H99.884c-53.361,0-96.619,43.593-96.619,97.369V399.51c0,53.776,43.258,97.369,96.619,97.369h297.911
			c53.361,0,96.619-43.593,96.619-97.369V99.293C494.414,45.517,451.156,1.924,397.795,1.924z M372.274,341.076
			c-5.34,10.763-12.522,19.669-21.549,26.713c-10.68,8.457-22.407,14.48-35.185,18.065c-12.775,3.587-29.018,5.382-48.723,5.382
			H153.162V105.084H253.47c20.848,0,36.643,0.802,47.389,2.403c10.741,1.603,20.815,4.966,30.225,10.089
			c10.171,5.509,17.765,12.875,22.79,22.1c5.02,9.224,7.531,19.86,7.531,31.901c0,13.966-3.465,26.395-10.392,37.282
			c-6.932,10.892-16.496,18.899-28.701,24.022v1.537c17.544,3.718,31.59,11.309,42.145,22.772
			c10.55,11.469,15.827,26.938,15.827,46.412C380.283,317.823,377.615,330.314,372.274,341.076z"/>
	</defs>
	<clipPath id="SVGID_2_">
		<use xlink:href="#SVGID_1_"  overflow="visible"/>
	</clipPath>
	<g clip-path="url(#SVGID_2_)">
		<path fill-rule="evenodd" clip-rule="evenodd" fill="#34495E" stroke="#000000" stroke-miterlimit="10" d="M497.693,500
			c-166.057,0-331.863,0-497.708,0c0-166.002,0-332.001,0-498.076c165.888,0,331.813,0,497.708,0
			C497.693,167.901,497.693,333.95,497.693,500z"/>
	</g>
</g>
</svg>
