<svg xmlns="http://www.w3.org/2000/svg" width="60" height="60" viewBox="0 0 60 60"><path fill="#FFF" d="M47.32 36.516c-.736-5.443-3.737-9.41-7.434-9.41H22.614c-3.7 0-6.698 3.965-7.435 9.408-2.67 1.35-4.052 4.147-4.052 7.39 0 2.496.818 4.727 2.406 6.24v5.143h6.402V52.16h22.626v3.127h6.402v-5.144c1.588-1.513 2.406-3.743 2.406-6.24 0-3.24-1.383-6.04-4.05-7.387m-24.707-7.49h17.27c2.434 0 4.564 2.886 5.356 6.788-.397-.072-.82-.115-1.25-.137l.002-.023c0-2.266-1.842-4.11-4.108-4.11-2.268 0-4.11 1.845-4.11 4.11H19.037c-.632 0-1.225.055-1.784.16.795-3.904 2.926-6.788 5.36-6.788m20.1 6.63h-5.65c0-1.562 1.268-2.828 2.827-2.828 1.554 0 2.823 1.267 2.823 2.827M18.08 46.588c-1.48 0-3.682-2.2-3.682-3.683 0-1.48 2.202-1.683 3.68-1.683 1.482 0 2.684 1.2 2.684 2.683 0 1.487-1.2 2.683-2.683 2.683m20.956-.477l-7.765 1-7.812-1c-.355 0-.64-.287-.64-.64 0-.352.285-.64.64-.64l7.813 1 7.766-1c.354 0 .642.288.642.64 0 .353-.287.64-.642.64m0-2.346l-7.765 1-7.812-1c-.355 0-.64-.288-.64-.642 0-.353.285-.638.64-.638l7.813 1 7.766-1c.354 0 .642.287.642.638 0 .354-.287.642-.642.642m5.382 2.824c-1.48 0-2.682-1.2-2.682-2.683 0-1.48 1.2-2.683 2.682-2.683 1.48 0 3.682.2 3.682 1.683 0 1.487-2.204 3.683-3.682 3.683"/><text transform="matrix(.96 -.28 .28 .96 29.1 32.78)" fill="#FFF" font-family="'MinionPro-Regular'" font-size="34.464">*</text></svg>