<svg xmlns="http://www.w3.org/2000/svg" width="60" height="60" viewBox="0 0 60 60"><path fill="#FFF" d="M42.932 38.642c-3.067 0-5.563 2.496-5.563 5.563s2.495 5.562 5.562 5.562c3.065 0 5.563-2.498 5.563-5.562 0-3.068-2.495-5.563-5.563-5.563m0 9.236c-2.027 0-3.678-1.65-3.678-3.678 0-2.027 1.65-3.676 3.678-3.676s3.676 1.648 3.676 3.676c0 2.03-1.648 3.678-3.676 3.678"/><path fill="#FFF" d="M31.89 35.804h6.595v-.965h3.508c5.102 0 7.768-3.63 7.768-8.105 0-3.186-1.357-5.933-3.976-7.257-.72-5.346-3.67-9.243-7.298-9.243H21.52c-3.632 0-6.578 3.896-7.302 9.242-2.62 1.322-3.98 4.072-3.98 7.258 0 2.448.805 4.64 2.364 6.125v5.052h6.286V34.84h2.63v.962h6.595v12.39h-3.19v1.256h10.153v-1.255h-3.19v-12.39h.004zm3.817-17.172c0-1.533 1.244-2.778 2.775-2.778 1.532 0 2.777 1.245 2.777 2.778h-5.553zm2.57 7.334c0 .348-.282.63-.63.63H22.353c-.348 0-.63-.282-.63-.63 0-.35.28-.63.63-.63H37.65c.345 0 .626.28.626.63m7.29.77c0 1.455-1.182 2.633-2.634 2.633-1.454 0-2.637-1.18-2.637-2.635 0-1.455 1.183-2.634 2.637-2.634 1.453 0 2.633 1.18 2.633 2.635M17.07 29.37c-1.455 0-2.634-1.18-2.634-2.635 0-1.455 1.18-2.634 2.633-2.634 1.454 0 2.634 1.18 2.634 2.635 0 1.455-1.18 2.634-2.635 2.634m.94-10.738c-.62 0-1.203.055-1.753.158.778-3.835 2.87-6.668 5.264-6.668h16.963c2.39 0 4.48 2.833 5.26 6.668-.39-.074-.802-.114-1.23-.136 0-.01.004-.016.004-.024 0-2.225-1.81-4.035-4.035-4.035s-4.033 1.81-4.033 4.035l-16.44.002zM22.352 28.9c-.348 0-.63-.28-.63-.63 0-.347.28-.628.63-.628H37.65c.347 0 .628.28.628.63 0 .347-.28.627-.628.627H22.352z"/></svg>