<svg xmlns="http://www.w3.org/2000/svg" width="60" height="50" viewBox="0 0 60 50"><path fill="#FFF" d="M46.22 27.426c-.734-5.443-3.735-9.41-7.433-9.41h-17.27c-3.7 0-6.7 3.965-7.437 9.408-2.668 1.35-4.05 4.147-4.05 7.39 0 2.496.816 4.726 2.405 6.24v5.143h6.402V43.07h22.627v3.127h6.4v-5.144c1.588-1.514 2.407-3.743 2.407-6.24 0-3.24-1.383-6.04-4.05-7.387m-24.707-7.49h17.272c2.434 0 4.563 2.886 5.355 6.79-.396-.074-.817-.116-1.25-.138 0-.01.003-.016.003-.023 0-2.266-1.84-4.11-4.108-4.11-2.267 0-4.11 1.844-4.11 4.11H17.94c-.632 0-1.225.055-1.784.16.793-3.906 2.924-6.788 5.36-6.788m20.1 6.628H35.96c0-1.56 1.27-2.828 2.83-2.828 1.554 0 2.823 1.267 2.823 2.828M16.98 37.498c-1.48 0-2.682-1.2-2.682-2.683 0-1.48 1.202-2.683 2.68-2.683 1.483 0 2.685 1.2 2.685 2.683 0 1.487-1.2 2.683-2.684 2.683m20.958-.477h-15.58c-.353 0-.64-.287-.64-.64 0-.352.287-.64.64-.64h15.58c.353 0 .64.288.64.64 0 .353-.287.64-.64.64m0-2.346h-15.58c-.353 0-.64-.288-.64-.642 0-.353.287-.638.64-.638h15.58c.353 0 .64.287.64.638 0 .354-.287.642-.64.642m5.38 2.824c-1.478 0-2.682-1.2-2.682-2.683 0-1.48 1.2-2.683 2.683-2.683 1.477 0 2.682 1.2 2.682 2.683-.002 1.487-1.205 2.683-2.683 2.683m-3.087-26.77c.92 1.47 2.537 2.456 4.4 2.458 2.038 0 3.78-1.185 4.635-2.894h-3.46c-1.225 0-2.217-1.028-2.217-2.305 0-1.268.995-2.298 2.217-2.3h3.458c-.846-1.71-2.594-2.893-4.637-2.895-1.858 0-3.477.987-4.397 2.46H18.356c-.767-.883-1.882-1.45-3.14-1.45-2.314 0-4.19 1.874-4.188 4.188 0 2.31 1.874 4.183 4.184 4.186 1.26 0 2.375-.572 3.145-1.447h21.878zM14.113 9.9L13.01 7.993l1.104-1.907 2.2-.003 1.104 1.91L16.316 9.9h-2.203z"/></svg>