<?xml version="1.0" encoding="utf-8"?>
<!-- Generator: Adobe Illustrator 16.0.0, SVG Export Plug-In . SVG Version: 6.00 Build 0)  -->
<!DOCTYPE svg PUBLIC "-//W3C//DTD SVG 1.1//EN" "http://www.w3.org/Graphics/SVG/1.1/DTD/svg11.dtd">
<svg version="1.1" id="Layer_1" xmlns="http://www.w3.org/2000/svg" xmlns:xlink="http://www.w3.org/1999/xlink" x="0px" y="0px"
	 width="60px" height="60px" viewBox="0 0 60 60" enable-background="new 0 0 60 60" xml:space="preserve">
<path fill="#FFFFFF" d="M42.932,38.642c-3.067,0-5.563,2.496-5.563,5.563s2.496,5.562,5.563,5.562c3.065,0,5.563-2.498,5.563-5.562
	C48.495,41.137,46,38.642,42.932,38.642 M42.932,47.878c-2.027,0-3.678-1.649-3.678-3.678c0-2.027,1.65-3.676,3.678-3.676
	c2.028,0,3.676,1.648,3.676,3.676C46.609,46.229,44.96,47.878,42.932,47.878"/>
<path fill="#FFFFFF" d="M31.89,35.804h6.595v-0.965h3.508c5.102,0,7.768-3.628,7.768-8.104c0-3.186-1.358-5.933-3.977-7.257
	c-0.72-5.346-3.67-9.243-7.298-9.243H21.521c-3.633,0-6.579,3.896-7.303,9.242c-2.619,1.322-3.979,4.072-3.979,7.258
	c0,2.448,0.804,4.64,2.363,6.125v5.052h6.286v-3.073h2.629v0.963h6.596v12.391h-3.191v1.255h10.154v-1.255h-3.19V35.804H31.89z
	 M35.707,18.632c0-1.533,1.244-2.778,2.775-2.778c1.532,0,2.777,1.245,2.777,2.778H35.707z M38.276,25.966
	c0,0.348-0.281,0.629-0.628,0.629H22.352c-0.348,0-0.63-0.281-0.63-0.629c0-0.349,0.281-0.63,0.63-0.63h15.298
	C37.995,25.336,38.276,25.617,38.276,25.966 M45.565,26.735c0,1.456-1.181,2.634-2.633,2.634c-1.454,0-2.637-1.178-2.637-2.634
	c0-1.455,1.183-2.634,2.637-2.634C44.385,24.101,45.565,25.28,45.565,26.735 M17.069,29.369c-1.454,0-2.633-1.178-2.633-2.634
	c0-1.455,1.181-2.634,2.633-2.634c1.455,0,2.635,1.18,2.635,2.634C19.704,28.19,18.525,29.369,17.069,29.369 M18.01,18.632
	c-0.62,0-1.203,0.055-1.753,0.158c0.778-3.835,2.871-6.668,5.264-6.668h16.962c2.389,0,4.48,2.833,5.26,6.668
	c-0.391-0.074-0.802-0.114-1.23-0.136c0-0.009,0.004-0.016,0.004-0.024c0-2.225-1.81-4.035-4.035-4.035
	c-2.225,0-4.033,1.811-4.033,4.035L18.01,18.632z M22.352,28.899c-0.348,0-0.63-0.28-0.63-0.628c0-0.348,0.281-0.629,0.63-0.629
	h15.298c0.347,0,0.628,0.281,0.628,0.629c0,0.348-0.281,0.628-0.628,0.628H22.352z"/>
</svg>
