<svg xmlns="http://www.w3.org/2000/svg" width="70" height="50" viewBox="0 0 70 50"><path fill="#FFF" d="M50.788 29.95c-.675-5.5-3.708-9.53-7.46-9.53H26.66c-3.754 0-6.79 4.033-7.464 9.53-2.37 1.356-3.62 3.94-3.62 6.942 0 1.88.51 3.587 1.453 4.95v6.03h7.916v-3.018h20.096v3.018h7.914v-6.03c.943-1.36 1.453-3.066 1.453-4.95 0-3.005-1.253-5.585-3.622-6.942m-28.5 9.528c-1.428 0-2.587-1.153-2.587-2.585 0-1.433 1.16-2.588 2.588-2.588 1.43 0 2.59 1.155 2.59 2.588 0 1.43-1.16 2.585-2.59 2.585m.925-10.55c-.515 0-.99.06-1.454.13.746-3.606 2.687-6.264 4.903-6.264H43.33c2.214 0 4.155 2.657 4.903 6.265-.25-.038-.51-.05-.772-.067 0-.02.01-.043.01-.063 0-2.283-1.856-4.14-4.14-4.14-2.28 0-4.137 1.856-4.137 4.14h-15.98v-.002zm19.3 10.263h-15.03c-.44 0-.792-.354-.792-.79s.355-.79.792-.79h15.03c.437 0 .79.354.79.79 0 .437-.356.79-.79.79m0-2.263h-15.03c-.44 0-.79-.354-.79-.792 0-.437.353-.792.79-.792h15.03c.437 0 .79.355.79.792 0 .437-.356.792-.79.792m-1.737-8c0-1.405 1.146-2.555 2.557-2.555 1.405 0 2.554 1.147 2.554 2.556h-5.11zm6.926 10.55c-1.43 0-2.588-1.152-2.588-2.584 0-1.433 1.16-2.588 2.59-2.588 1.427 0 2.586 1.155 2.586 2.588-.004 1.43-1.16 2.585-2.587 2.585M15.58.71h38.83v3.165H15.58zM32.86 12.962c0 1.18.953 2.137 2.134 2.137 1.18 0 2.133-.957 2.133-2.138s-2.133-4.924-2.133-4.924-2.135 3.745-2.135 4.924M26.428 9.434c0 1.18.954 2.135 2.137 2.135 1.18 0 2.138-.957 2.138-2.136 0-1.183-2.138-4.928-2.138-4.928s-2.137 3.743-2.137 4.928M39.286 9.434c0 1.18.954 2.135 2.137 2.135 1.18 0 2.136-.957 2.136-2.136 0-1.183-2.137-4.928-2.137-4.928s-2.137 3.743-2.137 4.928"/><path fill="#FFF" d="M67.443 22.504v-3.17H63.22V1.505H6.77v17.83H2.545v3.17H6.77v.506H2.545v3.164H6.77v.504H2.545v3.164H6.77v.51H2.545v3.164H6.77v.504H2.545v3.165H6.77v.505H2.545v3.165H6.77v.502H2.545v3.167H6.77v.508H2.545v3.165h10.026v-3.165H8.35v-.508h4.222v-3.167H8.35v-.502h4.222V37.69H8.35v-.505h4.222V34.02H8.35v-.504h4.222V30.35H8.35v-.508h4.222v-3.164H8.35v-.504h4.222V23.01H8.35v-.506h4.222v-3.17H8.35V3.088h53.287v16.248h-4.22v3.17h4.22v.505h-4.22v3.164h4.22v.504h-4.22v3.164h4.22v.51h-4.22v3.164h4.22v.504h-4.22v3.165h4.22v.505h-4.22v3.165h4.22v.502h-4.22v3.167h4.22v.508h-4.22v3.165h10.026v-3.165H63.22v-.508h4.223v-3.167H63.22v-.502h4.223V37.69H63.22v-.505h4.223V34.02H63.22v-.504h4.223V30.35H63.22v-.508h4.223v-3.164H63.22v-.504h4.223V23.01H63.22v-.506"/></svg>