<svg xmlns="http://www.w3.org/2000/svg" width="60" height="50" viewBox="0 0 60 50"><path fill="#FFF" d="M45.863 30.2c-.676-5.523-3.724-9.575-7.49-9.575H21.634c-3.77 0-6.815 4.05-7.497 9.57-2.38 1.366-3.636 3.957-3.636 6.972 0 1.89.512 3.605 1.46 4.978v6.052h7.95v-3.032h20.18v3.032h7.95v-6.052c.948-1.372 1.46-3.088 1.46-4.978-.003-3.01-1.26-5.606-3.64-6.968M17.24 39.765c-1.437 0-2.6-1.16-2.6-2.6 0-1.436 1.163-2.6 2.6-2.6 1.433 0 2.598 1.164 2.598 2.6 0 1.438-1.165 2.6-2.6 2.6m.928-10.593c-.516 0-.992.058-1.46.133.75-3.626 2.698-6.296 4.924-6.296h16.74c2.225 0 4.174 2.67 4.92 6.296-.248-.04-.51-.052-.772-.07 0-.023.006-.04.006-.063 0-2.293-1.86-4.157-4.154-4.157-2.29 0-4.153 1.864-4.153 4.157h-16.05zM37.55 39.48H22.452c-.44 0-.795-.355-.795-.795 0-.437.354-.793.795-.793H37.55c.438 0 .794.356.794.793 0 .44-.356.794-.795.794m0-2.274H22.452c-.44 0-.795-.356-.795-.793 0-.44.354-.794.795-.794H37.55c.438 0 .794.353.794.793 0 .437-.356.793-.795.793m-1.743-8.033c0-1.418 1.148-2.565 2.565-2.565 1.41 0 2.562 1.147 2.562 2.565h-5.127zm6.955 10.593c-1.435 0-2.6-1.16-2.6-2.6 0-1.436 1.164-2.6 2.6-2.6 1.437 0 2.598 1.164 2.598 2.6 0 1.438-1.162 2.6-2.598 2.6m15.59-38.14v46.57h-1.59V3.214H3.24v44.982H1.65V1.626H58.35zM4.297 4.317h51.408v3.18H4.3l-.003-3.18zm0 4.435h51.408v3.18H4.3l-.003-3.18zm0 4.434h51.408v3.18H4.3l-.003-3.18z"/></svg>