<svg xmlns="http://www.w3.org/2000/svg" width="30" height="30" viewBox="0 0 30 30"><path fill="none" stroke="#C0392B" stroke-linecap="round" stroke-linejoin="round" stroke-miterlimit="10" d="M10.214 13.012c.78-.78.78-2.047 0-2.828l-2.122-2.12c-.78-.782-2.047-.782-2.827 0L4.1 9.225C3.09 10.236 2.937 11.81 3.724 13c3.38 5.11 7.89 9.62 13 13 1.188.786 2.767.63 3.773-.378l1.164-1.164c.78-.78.78-2.047 0-2.828l-2.12-2.12c-.782-.78-2.05-.78-2.83 0l-.707.707c-2.325-1.907-4.59-4.172-6.496-6.498l.707-.708zM14.722 3.5c6.353 0 11.5 5.15 11.5 11.5M14.722 7.5c4.143 0 7.5 3.36 7.5 7.5M14.722 11.5c1.934 0 3.5 1.568 3.5 3.5"/></svg>