<?xml version="1.0" encoding="utf-8"?>
<!-- Generator: Adobe Illustrator 16.0.0, SVG Export Plug-In . SVG Version: 6.00 Build 0)  -->
<!DOCTYPE svg PUBLIC "-//W3C//DTD SVG 1.1//EN" "http://www.w3.org/Graphics/SVG/1.1/DTD/svg11.dtd">
<svg version="1.1" id="Layer_1" xmlns="http://www.w3.org/2000/svg" xmlns:xlink="http://www.w3.org/1999/xlink" x="0px" y="0px"
	 width="30px" height="30px" viewBox="0 0 30 30" enable-background="new 0 0 30 30" xml:space="preserve">
<path fill="none" stroke="#C0392B" stroke-linecap="round" stroke-linejoin="round" stroke-miterlimit="10" d="M10.214,13.012
	c0.781-0.781,0.781-2.047,0-2.828L8.092,8.063c-0.779-0.781-2.047-0.781-2.827,0L4.101,9.226c-1.01,1.009-1.165,2.584-0.378,3.775
	c3.38,5.11,7.889,9.619,13,13c1.188,0.785,2.767,0.628,3.773-0.379l1.164-1.164c0.781-0.78,0.781-2.047,0-2.828l-2.121-2.12
	c-0.781-0.781-2.048-0.781-2.829,0l-0.707,0.707c-2.325-1.907-4.59-4.172-6.496-6.498L10.214,13.012z"/>
<path fill="none" stroke="#C0392B" stroke-linecap="round" stroke-linejoin="round" stroke-miterlimit="10" d="M14.722,3.501
	c6.353,0,11.5,5.148,11.5,11.5"/>
<path fill="none" stroke="#C0392B" stroke-linecap="round" stroke-linejoin="round" stroke-miterlimit="10" d="M14.722,7.501
	c4.143,0,7.5,3.358,7.5,7.5"/>
<path fill="none" stroke="#C0392B" stroke-linecap="round" stroke-linejoin="round" stroke-miterlimit="10" d="M14.722,11.501
	c1.934,0,3.5,1.567,3.5,3.5"/>
</svg>
