<?xml version="1.0" encoding="utf-8"?>
<!-- Generator: Adobe Illustrator 16.0.0, SVG Export Plug-In . SVG Version: 6.00 Build 0)  -->
<!DOCTYPE svg PUBLIC "-//W3C//DTD SVG 1.1//EN" "http://www.w3.org/Graphics/SVG/1.1/DTD/svg11.dtd">
<svg version="1.1" id="Layer_1" xmlns="http://www.w3.org/2000/svg" xmlns:xlink="http://www.w3.org/1999/xlink" x="0px" y="0px"
	 width="70px" height="50px" viewBox="0 0 70 50" enable-background="new 0 0 70 50" xml:space="preserve">
<path fill="#FFFFFF" d="M50.788,29.95c-0.675-5.499-3.708-9.531-7.461-9.531H26.662c-3.754,0-6.789,4.034-7.464,9.531
	c-2.371,1.356-3.619,3.94-3.619,6.942c0,1.88,0.508,3.587,1.452,4.951v6.029h7.915v-3.018h20.096v3.018h7.914v-6.029
	c0.943-1.36,1.453-3.067,1.453-4.951C54.409,33.887,53.157,31.307,50.788,29.95 M22.288,39.478c-1.428,0-2.587-1.153-2.587-2.585
	c0-1.433,1.159-2.588,2.587-2.588c1.429,0,2.589,1.155,2.589,2.588C24.877,38.324,23.717,39.478,22.288,39.478 M23.213,28.928
	c-0.515,0-0.99,0.061-1.454,0.131c0.747-3.607,2.688-6.265,4.904-6.265h16.668c2.213,0,4.154,2.657,4.902,6.265
	c-0.249-0.037-0.511-0.049-0.772-0.066c0-0.021,0.009-0.043,0.009-0.063c0-2.283-1.856-4.139-4.141-4.139
	c-2.28,0-4.136,1.855-4.136,4.139h-15.98V28.928z M42.512,39.191h-15.03c-0.439,0-0.791-0.355-0.791-0.791s0.354-0.79,0.791-0.79
	h15.03c0.437,0,0.789,0.354,0.789,0.79C43.301,38.837,42.946,39.191,42.512,39.191 M42.512,36.927h-15.03
	c-0.439,0-0.791-0.354-0.791-0.792c0-0.437,0.354-0.792,0.791-0.792h15.03c0.437,0,0.789,0.355,0.789,0.792
	C43.301,36.572,42.946,36.927,42.512,36.927 M40.775,28.928c0-1.406,1.146-2.556,2.557-2.556c1.405,0,2.554,1.147,2.554,2.556
	H40.775z M47.701,39.478c-1.43,0-2.589-1.153-2.589-2.585c0-1.433,1.159-2.588,2.589-2.588c1.428,0,2.587,1.155,2.587,2.588
	C50.284,38.324,49.129,39.478,47.701,39.478"/>
<rect x="15.579" y="0.71" fill="#FFFFFF" width="38.83" height="3.165"/>
<path fill="#FFFFFF" d="M32.859,12.962c0,1.179,0.954,2.137,2.135,2.137c1.18,0,2.133-0.956,2.133-2.137s-2.133-4.924-2.133-4.924
	S32.859,11.783,32.859,12.962"/>
<path fill="#FFFFFF" d="M26.428,9.434c0,1.179,0.954,2.135,2.137,2.135c1.18,0,2.138-0.956,2.138-2.135
	c0-1.183-2.138-4.928-2.138-4.928S26.428,8.249,26.428,9.434"/>
<path fill="#FFFFFF" d="M39.286,9.434c0,1.179,0.954,2.135,2.137,2.135c1.179,0,2.136-0.956,2.136-2.135
	c0-1.183-2.136-4.928-2.136-4.928S39.286,8.249,39.286,9.434"/>
<polygon fill="#FFFFFF" points="67.443,22.504 67.443,19.335 63.221,19.335 63.221,1.503 6.769,1.503 6.769,19.335 2.546,19.335 
	2.546,22.504 6.769,22.504 6.769,23.01 2.546,23.01 2.546,26.174 6.769,26.174 6.769,26.678 2.546,26.678 2.546,29.842 
	6.769,29.842 6.769,30.351 2.546,30.351 2.546,33.516 6.769,33.516 6.769,34.02 2.546,34.02 2.546,37.185 6.769,37.185 6.769,37.69 
	2.546,37.69 2.546,40.855 6.769,40.855 6.769,41.357 2.546,41.357 2.546,44.524 6.769,44.524 6.769,45.032 2.546,45.032 
	2.546,48.197 12.572,48.197 12.572,45.032 8.35,45.032 8.35,44.524 12.572,44.524 12.572,41.357 8.35,41.357 8.35,40.855 
	12.572,40.855 12.572,37.69 8.35,37.69 8.35,37.185 12.572,37.185 12.572,34.02 8.35,34.02 8.35,33.516 12.572,33.516 
	12.572,30.351 8.35,30.351 8.35,29.842 12.572,29.842 12.572,26.678 8.35,26.678 8.35,26.174 12.572,26.174 12.572,23.01 
	8.35,23.01 8.35,22.504 12.572,22.504 12.572,19.335 8.35,19.335 8.35,3.087 61.637,3.087 61.637,19.335 57.417,19.335 
	57.417,22.504 61.637,22.504 61.637,23.01 57.417,23.01 57.417,26.174 61.637,26.174 61.637,26.678 57.417,26.678 57.417,29.842 
	61.637,29.842 61.637,30.351 57.417,30.351 57.417,33.516 61.637,33.516 61.637,34.02 57.417,34.02 57.417,37.185 61.637,37.185 
	61.637,37.69 57.417,37.69 57.417,40.855 61.637,40.855 61.637,41.357 57.417,41.357 57.417,44.524 61.637,44.524 61.637,45.032 
	57.417,45.032 57.417,48.197 67.443,48.197 67.443,45.032 63.221,45.032 63.221,44.524 67.443,44.524 67.443,41.357 63.221,41.357 
	63.221,40.855 67.443,40.855 67.443,37.69 63.221,37.69 63.221,37.185 67.443,37.185 67.443,34.02 63.221,34.02 63.221,33.516 
	67.443,33.516 67.443,30.351 63.221,30.351 63.221,29.842 67.443,29.842 67.443,26.678 63.221,26.678 63.221,26.174 67.443,26.174 
	67.443,23.01 63.221,23.01 63.221,22.504 "/>
</svg>
